# xmcd
#
# Track frame offsets:
#	150
#	29143
#	59784
#	92439
#	116613
#	139098
#	153247
#	183277
#	204585
#	227107
#	261569
#	272401
#
# Disc length: 3871 seconds
#
# Revision: 1
# Processed by: cddbd v1.5.2PL0 Copyright (c) Steve Scherf et al.
# Submitted via: audiograbber 1.83.01
#
DISCID=ae0f1d0c
DTITLE=Joe Bonamassa - The Ballad Of John Henry
DYEAR=2009
DGENRE=Blues Rock
TTITLE0=The Ballad Of John Henry
TTITLE1=Stop!
TTITLE2=Last Kiss
TTITLE3=Jockey Full Of Bourbon
TTITLE4=Story Of A Quarryman
TTITLE5=Lonesome Road Blues
TTITLE6=Happier Times
TTITLE7=Feelin' Good
TTITLE8=Funkier Than A Mosquito's Tweeter
TTITLE9=The Great Flood
TTITLE10=From The Valley
TTITLE11=As The Crow Flies
EXTD=
EXTT0=
EXTT1=
EXTT2=
EXTT3=
EXTT4=
EXTT5=
EXTT6=
EXTT7=
EXTT8=
EXTT9=
EXTT10=
EXTT11=
PLAYORDER=
